<svg viewBox="0 0 1200 900" xmlns="http://www.w3.org/2000/svg" role="img" aria-labelledby="title desc">
  <title id="title">Nuvanaah compassionate care illustration</title>
  <desc id="desc">Two softly lit women in warm tones sharing a comforting embrace.</desc>
  <defs>
    <linearGradient id="bg" x1="0" y1="0" x2="1" y2="1">
      <stop offset="0%" stop-color="#fff8f0"/>
      <stop offset="45%" stop-color="#f6e2d3"/>
      <stop offset="100%" stop-color="#ead0c0"/>
    </linearGradient>
    <linearGradient id="window" x1="0" y1="0" x2="0" y2="1">
      <stop offset="0%" stop-color="#fff9ef" stop-opacity="0.92"/>
      <stop offset="100%" stop-color="#f6e8d9" stop-opacity="0.55"/>
    </linearGradient>
    <radialGradient id="glow" cx="50%" cy="26%" r="58%">
      <stop offset="0%" stop-color="#fff6e8" stop-opacity="1"/>
      <stop offset="100%" stop-color="#fff6e8" stop-opacity="0"/>
    </radialGradient>
    <linearGradient id="skin1" x1="0" y1="0" x2="1" y2="1">
      <stop offset="0%" stop-color="#f5c9aa"/>
      <stop offset="100%" stop-color="#d39a72"/>
    </linearGradient>
    <linearGradient id="skin2" x1="0" y1="0" x2="1" y2="1">
      <stop offset="0%" stop-color="#8c5b39"/>
      <stop offset="100%" stop-color="#5f3825"/>
    </linearGradient>
    <linearGradient id="cloth1" x1="0" y1="0" x2="1" y2="1">
      <stop offset="0%" stop-color="#efe4d8"/>
      <stop offset="100%" stop-color="#d2bba7"/>
    </linearGradient>
    <linearGradient id="cloth2" x1="0" y1="0" x2="1" y2="1">
      <stop offset="0%" stop-color="#d9d2bf"/>
      <stop offset="100%" stop-color="#b9ad97"/>
    </linearGradient>
    <filter id="softShadow" x="-20%" y="-20%" width="140%" height="140%">
      <feDropShadow dx="0" dy="24" stdDeviation="24" flood-color="#7d5137" flood-opacity="0.14"/>
    </filter>
  </defs>

  <rect width="1200" height="900" fill="url(#bg)"/>
  <ellipse cx="600" cy="280" rx="440" ry="280" fill="url(#glow)"/>
  <rect x="310" y="120" width="580" height="520" rx="24" fill="url(#window)" opacity="0.28"/>
  <rect x="566" y="120" width="8" height="520" rx="4" fill="#fff5e9" opacity="0.65"/>
  <rect x="310" y="375" width="580" height="8" rx="4" fill="#fff5e9" opacity="0.65"/>

  <g filter="url(#softShadow)">
    <path d="M245 690c40-104 97-168 187-188 56-13 120-7 174 19 39 19 74 49 95 84 15 25 21 55 22 85H245Z" fill="#f4dcc8"/>
    <path d="M681 683c16-95 57-164 128-202 62-33 146-37 221-8 50 19 95 54 130 98 25 31 41 68 45 112H681Z" fill="#ead4c0"/>
  </g>

  <!-- Left figure -->
  <g transform="translate(280 250)">
    <path d="M110 218c-28-36-44-82-40-126 4-50 33-89 78-112 28-14 61-18 92-12 34 7 63 27 80 54 15 24 20 54 18 83-3 41-19 82-49 118-22 26-47 43-72 52-41 14-74 2-107-57Z" fill="url(#skin1)"/>
    <path d="M168 86c-14 12-25 33-28 54-4 31 7 67 26 96 13 20 30 35 51 44 16 8 39 12 59 9 23-3 42-14 56-30 18-21 29-49 30-76 1-37-12-69-33-92-31-35-105-45-161-5Z" fill="#f4b38c" opacity="0.92"/>
    <path d="M67 170c-24 14-41 36-49 64-10 34-7 71 3 109 11 42 27 74 52 103 15 17 36 31 61 37 31 8 64 3 90-14 25-16 43-42 49-72 4-23 1-49-9-68-12-22-31-38-52-50-32-18-64-28-89-45-21-13-39-37-56-64Z" fill="url(#cloth1)"/>
    <path d="M182 54c-30 0-58 9-81 25-16 11-31 27-39 48-5 12-6 26-5 39 2 14 7 28 15 40 6 10 15 18 24 24-4-18-2-39 6-59 10-26 31-50 58-66 31-18 67-25 104-19-17-20-42-31-82-32Z" fill="#8f6a60"/>
    <path d="M97 232c16 1 29 12 42 30 15 21 27 46 33 70 4 17 6 34 4 50-1 11-4 19-8 26-14-5-31-10-44-18-24-15-40-35-52-58-11-23-15-47-14-69 1-15 4-27 11-38 8-10 17-14 28-13Z" fill="#b48b76" opacity="0.85"/>
    <path d="M142 197c18-18 42-27 68-29 35-2 71 10 93 33 14 15 21 33 21 53 0 18-6 36-18 52-13 17-32 31-52 38-14 5-29 7-45 5-17-2-31-8-43-18-16-13-27-31-34-51-9-27-6-55 10-83Z" fill="#f3d8c2" opacity="0.88"/>
    <path d="M226 194c17 6 32 18 42 35 11 18 15 40 11 61-3 16-10 29-21 41-10 10-25 18-40 21-14 3-28 1-40-5-10-5-18-12-25-21 8-4 16-10 22-18 8-10 12-22 13-35 2-18-2-36-11-53-2-4-5-8-8-12 15-19 36-28 57-24Z" fill="#efbf9f"/>
    <circle cx="146" cy="147" r="13" fill="#4a2d23"/>
    <circle cx="209" cy="145" r="13" fill="#4a2d23"/>
    <path d="M132 129c12-15 29-22 46-22 18 0 35 7 48 20" stroke="#5c362b" stroke-width="8" stroke-linecap="round" fill="none"/>
    <path d="M129 100c-16 6-29 17-36 31" stroke="#7d4f43" stroke-width="22" stroke-linecap="round" fill="none" opacity="0.85"/>
    <path d="M147 84c22-26 53-38 86-37 27 1 52 11 71 29 18 17 29 40 31 64 1 9 0 18-2 27-6-26-21-48-42-65-27-22-63-31-100-24-14 3-31 9-44 16Z" fill="#a17f73" opacity="0.92"/>
    <path d="M77 255c18 10 33 17 44 19 15 3 32-1 47-10 10-7 18-15 22-24" stroke="#c8a38f" stroke-width="18" stroke-linecap="round" fill="none" opacity="0.9"/>
  </g>

  <!-- Right figure -->
  <g transform="translate(593 228)">
    <path d="M91 228c-20-45-29-93-21-134 7-33 25-63 53-82 27-19 62-28 98-26 38 3 73 16 99 41 21 19 35 43 42 69 10 38 9 82-8 128-18 49-48 91-88 123-34 28-72 39-111 31-31-7-53-24-64-50Z" fill="url(#skin2)"/>
    <path d="M160 70c-17 8-32 22-42 39-13 22-19 49-18 74 1 26 8 52 20 73 11 20 29 36 51 44 18 7 39 8 58 4 24-5 45-17 62-35 22-23 36-54 39-85 3-35-5-69-23-96-19-27-52-43-91-43-19 0-39 4-56 10Z" fill="#b57b52" opacity="0.9"/>
    <path d="M48 153c-23 20-38 48-43 81-5 31 0 62 10 91 12 35 31 64 57 89 18 17 40 28 65 33 30 6 60 1 84-15 24-15 42-41 52-69 8-23 10-48 8-70-3-31-15-58-34-79-26-29-61-43-96-43-36 0-72 13-103 42Z" fill="url(#cloth2)"/>
    <path d="M158 185c20 0 39 7 55 20 15 12 25 30 28 50 3 17 1 35-7 51-7 15-19 29-35 39-16 10-34 16-52 16-17 0-33-4-47-12-13-7-23-17-32-28 11-2 20-6 28-12 13-9 21-23 24-38 4-20 1-42-10-60-5-8-11-15-17-21 15-3 31-5 47-5Z" fill="#dcc6af" opacity="0.9"/>
    <path d="M133 84c18-23 42-35 69-39 29-4 59 1 85 14 27 14 49 36 62 64 7 16 10 33 10 50-11-20-27-37-47-49-27-16-60-22-95-18-26 3-52 12-72 28-7-18-10-36-12-50Z" fill="#7e5f48" opacity="0.92"/>
    <circle cx="173" cy="126" r="12" fill="#3b231c"/>
    <circle cx="236" cy="126" r="12" fill="#3b231c"/>
    <path d="M164 107c13-11 29-16 45-16 18 0 35 5 49 16" stroke="#4a2d23" stroke-width="8" stroke-linecap="round" fill="none"/>
    <path d="M115 241c16 16 32 24 49 25 17 1 35-4 53-15 14-8 25-19 32-31" stroke="#d2b7a2" stroke-width="18" stroke-linecap="round" fill="none" opacity="0.9"/>
    <path d="M233 238c11 2 21 7 30 16 6 6 11 13 14 20" stroke="#d2b7a2" stroke-width="16" stroke-linecap="round" fill="none" opacity="0.8"/>
  </g>

  <!-- Shared arm / embrace -->
  <path d="M397 532c48-35 97-52 148-53 57-1 109 15 156 46 20 13 37 29 51 47 9 12 16 25 20 38-27 6-52 13-77 22-27-18-58-28-92-31-47-4-93 6-138 30-29-12-58-22-88-28-25-6-52-7-81-3 17-25 36-49 51-68Z" fill="#b6883a" opacity="0.95"/>
  <path d="M478 568c31-19 61-29 91-29 34 0 68 10 101 30 7 4 13 9 19 14-26 4-52 10-77 20-31-12-64-18-100-18-28 0-58 4-89 13-2-10 8-20 55-30Z" fill="#d3ab4a" opacity="0.88"/>

  <!-- Ambient sparkles -->
  <g fill="#ffffff" opacity="0.95">
    <circle cx="610" cy="268" r="7"/>
    <circle cx="650" cy="230" r="5"/>
    <circle cx="698" cy="276" r="4"/>
  </g>
</svg>
